<svg xmlns="http://www.w3.org/2000/svg" viewBox="0 0 12 12"><defs><style>.cls-1{fill:#fff;}.cls-2{fill:#fcee21;}.cls-3{fill:#39b54a;}.cls-4{fill:#ff3e3e;}.cls-5{fill:#1a92ff;}</style></defs><g id="Layer_2" data-name="Layer 2"><g id="Layer_1-2" data-name="Layer 1"><circle class="cls-1" cx="6" cy="6" r="6"/><path class="cls-2" d="M4.76,5.7a2.38,2.38,0,0,1,.17-.93S5,4.69,5,4.64L3.9,4c0,.07-.1.12-.14.2A3.21,3.21,0,0,0,3.4,5.72,3.42,3.42,0,0,0,3.65,7l1.2-.61A2.73,2.73,0,0,1,4.76,5.7Z"/><path class="cls-3" d="M6.12,7.44a1.25,1.25,0,0,1-.73-.2,1.3,1.3,0,0,1-.47-.6,1.63,1.63,0,0,1-.07-.26L3.65,7c0,.08.05.18.09.27a2.53,2.53,0,0,0,1,1,2.83,2.83,0,0,0,1.41.35A2.79,2.79,0,0,0,7.4,8.33,2.06,2.06,0,0,0,7.9,8L7,7.19A1.25,1.25,0,0,1,6.12,7.44Z"/><path class="cls-4" d="M5.4,4.18A1.26,1.26,0,0,1,6.12,4a1.15,1.15,0,0,1,.69.19.93.93,0,0,1,.38.56H8.54a2,2,0,0,0-.4-1,2.34,2.34,0,0,0-.87-.68A2.87,2.87,0,0,0,6.09,2.8a2.76,2.76,0,0,0-1.37.35A2.35,2.35,0,0,0,3.9,4L5,4.64A1.39,1.39,0,0,1,5.4,4.18Z"/><path class="cls-5" d="M6.18,5.46v1H7.32A1,1,0,0,1,7,7.17l0,0L7.9,8a2,2,0,0,0,.38-.48A2.57,2.57,0,0,0,8.6,6.2V5.46Z"/></g></g></svg>