<svg xmlns="http://www.w3.org/2000/svg" viewBox="0 0 174.88 43.04"><defs><style>.cls-1{fill:#fff;}</style></defs><g id="Layer_2" data-name="Layer 2"><g id="Layer_1-2" data-name="Layer 1"><polygon class="cls-1" points="7.62 0 0 0 0 42.6 3.25 42.6 7.62 42.6 23.41 42.6 23.41 35.24 7.62 35.24 7.62 0"/><polygon class="cls-1" points="166.21 0 158.53 25.9 150.91 0 142.18 0 142.18 42.6 149.13 42.6 149.13 15.05 155.87 36.45 161.2 36.45 167.99 14.31 167.99 42.6 174.88 42.6 174.88 0 166.21 0"/><rect class="cls-1" x="104.25" width="7.65" height="20.26"/><path class="cls-1" d="M122.33,29.94A5.66,5.66,0,0,1,121,34a5.08,5.08,0,0,1-3.87,1.45A5,5,0,0,1,113.26,34a5.7,5.7,0,0,1-1.36-4.06V25.11h-7.65v4.63a15.68,15.68,0,0,0,1.51,7.17,10.3,10.3,0,0,0,4.39,4.56,16.12,16.12,0,0,0,13.88,0,10.42,10.42,0,0,0,4.42-4.56A15.68,15.68,0,0,0,130,29.74V0h-7.64Z"/><polygon class="cls-1" points="41.86 25.11 45.12 25.11 55.6 25.11 55.6 17.75 41.86 17.75 41.86 13.49 34.24 13.49 34.24 25.11 37.29 25.11 41.86 25.11"/><polygon class="cls-1" points="41.86 31.26 34.24 31.26 34.24 42.6 37.29 42.6 41.86 42.6 57.94 42.6 57.94 35.19 41.86 35.19 41.86 31.26"/><polygon class="cls-1" points="37.29 0 34.24 0 34.24 7.41 37.29 7.41 41.86 7.41 44.01 7.41 57.94 7.41 57.94 0 41.86 0 37.29 0"/><polygon class="cls-1" points="72.56 0 69.51 0 69.51 7.41 72.56 7.41 77.13 7.41 93.21 7.41 93.21 0 77.13 0 72.56 0"/><polygon class="cls-1" points="77.13 25.11 90.87 25.11 90.87 17.75 77.13 17.75 77.13 13.49 69.51 13.49 69.51 25.11 72.56 25.11 77.13 25.11"/><polygon class="cls-1" points="77.13 31.26 69.51 31.26 69.51 42.6 72.56 42.6 77.13 42.6 93.21 42.6 93.21 35.19 77.13 35.19 77.13 31.26"/></g></g></svg>